<?xml version="1.0" standalone="no"?>
<!DOCTYPE svg PUBLIC "-//W3C//DTD SVG 20010904//EN"
 "http://www.w3.org/TR/2001/REC-SVG-20010904/DTD/svg10.dtd">
<svg version="1.0" xmlns="http://www.w3.org/2000/svg"
 width="1003.000000pt" height="253.000000pt" viewBox="0 0 1003.000000 253.000000"
 preserveAspectRatio="xMidYMid meet">

<g transform="translate(0.000000,253.000000) scale(0.100000,-0.100000)"
fill="#000000" stroke="none">
<path d="M6876 2508 c-14 -20 -14 -24 -1 -45 14 -21 13 -28 -24 -100 -63 -125
-58 -122 -122 -72 -29 23 -56 44 -58 45 -2 2 2 10 9 19 10 12 9 20 -4 40 -9
14 -23 25 -31 25 -17 0 -45 -27 -45 -45 0 -17 27 -45 44 -45 8 0 21 -38 35
-99 21 -94 24 -100 55 -115 85 -40 279 -39 350 2 31 18 35 28 71 187 2 11 18
26 35 33 34 16 39 41 12 65 -23 21 -36 21 -57 1 -11 -11 -14 -25 -10 -44 5
-24 -1 -32 -50 -70 -30 -23 -57 -41 -59 -39 -1 2 -26 47 -54 100 -44 84 -50
99 -37 109 29 24 11 70 -26 70 -10 0 -25 -10 -33 -22z"/>
<path d="M65 2498 c-14 -65 -54 -342 -49 -350 3 -4 15 -8 27 -8 12 0 32 -3 45
-6 22 -6 23 -10 16 -73 -19 -202 72 -385 230 -457 78 -36 141 -44 329 -44
l170 0 -6 -277 c-7 -315 -3 -299 -101 -348 -113 -57 -234 -6 -275 114 -6 19
-11 64 -11 101 0 62 -2 68 -22 73 -89 21 -341 68 -344 64 -3 -3 -8 -45 -11
-94 -18 -281 144 -550 383 -634 194 -67 435 -10 599 143 146 136 158 191 153
691 -3 291 -5 325 -22 356 -33 62 -104 127 -169 157 -61 28 -66 29 -292 35
-126 3 -231 7 -233 7 -2 1 -2 35 0 75 l3 72 105 -3 c166 -5 647 32 666 51 3 3
-7 86 -22 186 -31 208 -15 189 -149 171 -254 -34 -640 -32 -904 5 -58 8 -106
15 -108 15 -1 0 -5 -10 -8 -22z"/>
<path d="M1440 2488 c0 -7 -6 -62 -14 -123 -8 -60 -17 -140 -21 -177 -6 -63
-8 -68 -31 -68 -28 0 -25 8 -59 -204 -14 -88 -22 -163 -18 -167 5 -4 24 -9 43
-11 l35 -3 7 -230 c7 -230 25 -457 54 -655 16 -117 55 -333 60 -339 2 -2 85
14 185 35 l181 38 -7 30 c-20 101 -56 331 -69 453 -14 124 -35 477 -36 588 l0
40 196 0 196 0 -6 -27 c-13 -67 -18 -551 -7 -708 11 -154 35 -354 46 -391 5
-15 24 -13 178 18 94 20 176 39 180 43 5 4 1 57 -8 116 -21 129 -31 588 -20
830 7 142 9 157 26 161 24 7 24 4 -6 203 -14 91 -25 167 -25 170 0 3 -44 0
-97 -7 -138 -18 -453 -32 -551 -26 l-83 6 5 41 c17 133 37 318 34 321 -5 4
-324 55 -348 55 -11 0 -20 -6 -20 -12z"/>
<path d="M6196 2489 c-6 -19 -33 -243 -42 -346 -8 -95 7 -85 -159 -103 -55 -6
-115 -13 -132 -16 l-33 -5 0 226 0 225 -185 0 -185 0 -2 -242 -3 -243 -48 -3
c-32 -2 -50 -8 -54 -18 -6 -16 14 -314 23 -346 4 -13 16 -18 45 -18 l39 0 0
-520 0 -520 185 0 185 0 0 540 c0 297 3 540 8 540 4 0 63 7 132 15 69 8 132
15 141 15 13 0 17 -35 27 -247 7 -137 21 -326 32 -422 22 -198 68 -472 80
-484 11 -12 360 64 360 77 0 6 -7 47 -15 91 -51 264 -85 608 -85 862 l0 172
50 7 c28 4 50 8 50 9 0 2 -11 85 -25 186 -14 101 -25 185 -25 187 0 1 -7 2
-15 2 -19 0 -19 23 0 175 8 66 15 129 15 141 0 19 -12 22 -142 42 -79 12 -160
25 -180 28 -27 5 -39 3 -42 -7z"/>
<path d="M7810 2108 c0 -46 -12 -51 -97 -45 -43 3 -171 3 -285 0 l-208 -6 0
-61 c0 -34 3 -118 7 -188 l6 -128 31 0 31 0 -4 -346 c-4 -449 16 -661 73 -773
l16 -29 162 84 c92 47 162 89 161 96 -1 7 -10 47 -19 88 -16 65 -18 126 -18
465 -1 215 2 397 6 405 4 12 17 15 45 12 l40 -4 6 -216 c6 -214 23 -421 35
-433 4 -4 87 5 186 19 l178 26 -6 60 c-3 34 -9 124 -12 202 l-7 141 81 56 c44
31 83 57 86 57 3 0 6 -55 6 -123 0 -171 17 -417 41 -582 20 -144 65 -354 79
-368 4 -5 79 13 166 38 88 25 166 48 175 51 15 4 15 10 -2 77 -26 103 -57 293
-69 427 -13 151 -13 591 1 780 6 83 9 153 8 155 -2 1 -85 9 -184 18 l-180 15
-89 -61 -89 -60 7 57 c3 31 3 56 -1 56 -5 0 -82 14 -173 30 -91 17 -171 30
-177 30 -7 0 -13 -10 -13 -22z"/>
<path d="M2675 2098 c-5 -23 -55 -341 -55 -351 0 -3 24 -9 54 -12 l53 -7 6
-251 c4 -139 13 -315 21 -392 21 -196 22 -191 -14 -198 -16 -4 -30 -13 -30
-20 0 -12 52 -278 65 -334 4 -19 12 -23 43 -22 48 2 385 69 392 79 5 7 262 60
291 60 12 0 21 -19 34 -70 9 -38 20 -70 24 -70 12 0 342 98 347 103 3 3 -1 30
-9 61 -14 52 -14 56 4 61 24 8 24 -2 -15 198 -22 115 -38 171 -49 180 -14 10
-18 44 -23 237 -4 124 -4 260 0 303 l8 77 33 0 c19 0 36 4 40 9 4 8 -43 360
-50 369 -2 2 -67 -5 -146 -15 -201 -24 -638 -24 -839 0 -80 10 -153 20 -162
23 -12 4 -19 -2 -23 -18z m768 -715 c3 -170 8 -317 12 -329 6 -20 -2 -23 -151
-52 -87 -18 -159 -31 -160 -29 -8 8 -35 351 -41 518 l-6 199 170 0 170 0 6
-307z"/>
<path d="M4020 1973 c-13 -82 -24 -166 -24 -188 l-1 -39 54 -9 54 -9 -8 -76
c-11 -114 -21 -788 -13 -852 4 -30 17 -147 29 -260 20 -197 69 -514 82 -526 6
-6 346 62 355 71 3 3 -7 76 -21 162 -30 180 -50 324 -45 328 4 2 360 75 369
75 4 0 10 -20 13 -45 9 -55 -1 -55 211 -11 l160 32 -3 51 c-4 49 -3 51 26 57
l29 7 -36 180 c-22 111 -41 183 -50 188 -12 8 -13 50 -8 258 9 326 14 373 39
373 16 0 19 5 14 28 -3 15 -15 95 -26 177 -12 83 -23 155 -25 161 -2 7 -31 7
-97 -2 -260 -37 -652 -36 -928 1 -63 8 -118 15 -121 15 -3 0 -16 -66 -29 -147z
m806 -381 c-3 -58 -6 -207 -6 -332 l0 -227 -177 -37 c-98 -20 -181 -36 -185
-36 -17 0 -2 626 17 715 4 19 13 20 181 21 l177 0 -7 -104z"/>
<path d="M8856 1953 c-15 -93 -30 -178 -33 -190 -4 -18 -1 -23 15 -23 48 0 49
-2 34 -123 -17 -142 -10 -463 12 -559 65 -283 194 -441 410 -503 87 -25 215
-23 291 5 151 57 293 196 383 375 54 105 55 112 24 123 -267 94 -324 113 -326
110 -1 -1 -16 -30 -32 -62 -16 -33 -51 -83 -77 -112 -109 -119 -218 -103 -273
41 -19 51 -12 65 32 65 46 0 185 43 269 84 217 104 351 260 400 466 9 36 20
73 26 83 7 14 3 67 -17 195 -15 98 -28 178 -30 180 -1 2 -60 -4 -131 -14 -177
-25 -604 -25 -788 -1 -71 10 -137 20 -146 22 -13 5 -20 -21 -43 -162z m804
-263 c0 -54 -109 -167 -203 -211 -64 -30 -212 -67 -223 -57 -6 7 13 220 22
250 5 16 25 18 187 21 100 1 190 3 200 5 9 1 17 -3 17 -8z"/>
<path d="M6710 1853 c0 -341 41 -1286 56 -1302 6 -6 358 20 365 27 4 4 3 52
-1 107 -21 246 -33 541 -39 935 l-6 425 -187 3 -188 2 0 -197z"/>
</g>
</svg>
